<svg xmlns="http://www.w3.org/2000/svg" width="20" height="20" viewBox="0 0 20 20" fill="none">
  <path fill-rule="evenodd" clip-rule="evenodd" d="M17.0833 5.83317H2.91667C2.68655 5.83317 2.5 5.64662 2.5 5.4165V4.58317C2.5 4.35305 2.68655 4.1665 2.91667 4.1665H17.0833C17.3135 4.1665 17.5 4.35305 17.5 4.58317V5.4165C17.5 5.64662 17.3135 5.83317 17.0833 5.83317ZM12.5 10.4165V9.58317C12.5 9.35305 12.3135 9.1665 12.0833 9.1665H2.91667C2.68655 9.1665 2.5 9.35305 2.5 9.58317V10.4165C2.5 10.6466 2.68655 10.8332 2.91667 10.8332H12.0833C12.3135 10.8332 12.5 10.6466 12.5 10.4165ZM7.5 14.5832V15.4165C7.5 15.6466 7.31345 15.8332 7.08333 15.8332H2.91667C2.68655 15.8332 2.5 15.6466 2.5 15.4165V14.5832C2.5 14.3531 2.68655 14.1665 2.91667 14.1665H7.08333C7.31345 14.1665 7.5 14.3531 7.5 14.5832Z" fill="black"/>
</svg>